<mxfile host="Electron" modified="2024-04-12T15:42:34.360Z" agent="Mozilla/5.0 (Windows NT 10.0; Win64; x64) AppleWebKit/537.36 (KHTML, like Gecko) draw.io/23.1.5 Chrome/120.0.6099.109 Electron/28.1.0 Safari/537.36" etag="-7kMvpxyyRYT-L9n81HG" version="23.1.5" type="device">
  <diagram name="PÃ¡gina-1" id="3VnKvt45-U3AXww0ccac">
    <mxGraphModel dx="864" dy="516" grid="1" gridSize="10" guides="1" tooltips="1" connect="1" arrows="1" fold="1" page="1" pageScale="1" pageWidth="827" pageHeight="1169" math="0" shadow="0">
      <root>
        <mxCell id="0" />
        <mxCell id="1" parent="0" />
        <mxCell id="DnioZaB3EtmS2G3EoPJK-32" style="edgeStyle=orthogonalEdgeStyle;rounded=0;orthogonalLoop=1;jettySize=auto;html=1;entryX=0.5;entryY=0;entryDx=0;entryDy=0;" edge="1" parent="1" source="DnioZaB3EtmS2G3EoPJK-1" target="DnioZaB3EtmS2G3EoPJK-2">
          <mxGeometry relative="1" as="geometry" />
        </mxCell>
        <mxCell id="DnioZaB3EtmS2G3EoPJK-1" value="PACIENTE" style="rounded=0;whiteSpace=wrap;html=1;" vertex="1" parent="1">
          <mxGeometry x="340" y="110" width="120" height="40" as="geometry" />
        </mxCell>
        <mxCell id="DnioZaB3EtmS2G3EoPJK-38" style="edgeStyle=orthogonalEdgeStyle;rounded=0;orthogonalLoop=1;jettySize=auto;html=1;exitX=0.5;exitY=1;exitDx=0;exitDy=0;entryX=0.5;entryY=0;entryDx=0;entryDy=0;" edge="1" parent="1" source="DnioZaB3EtmS2G3EoPJK-2" target="DnioZaB3EtmS2G3EoPJK-8">
          <mxGeometry relative="1" as="geometry" />
        </mxCell>
        <mxCell id="DnioZaB3EtmS2G3EoPJK-2" value="tiene_expediente" style="rhombus;whiteSpace=wrap;html=1;" vertex="1" parent="1">
          <mxGeometry x="350" y="230" width="110" height="80" as="geometry" />
        </mxCell>
        <mxCell id="DnioZaB3EtmS2G3EoPJK-33" style="edgeStyle=orthogonalEdgeStyle;rounded=0;orthogonalLoop=1;jettySize=auto;html=1;exitX=0;exitY=0.5;exitDx=0;exitDy=0;entryX=1;entryY=0;entryDx=0;entryDy=0;" edge="1" parent="1" source="DnioZaB3EtmS2G3EoPJK-3" target="DnioZaB3EtmS2G3EoPJK-1">
          <mxGeometry relative="1" as="geometry" />
        </mxCell>
        <mxCell id="DnioZaB3EtmS2G3EoPJK-3" value="Fecha de ingreso" style="ellipse;whiteSpace=wrap;html=1;" vertex="1" parent="1">
          <mxGeometry x="510" y="40" width="100" height="60" as="geometry" />
        </mxCell>
        <mxCell id="DnioZaB3EtmS2G3EoPJK-34" style="edgeStyle=orthogonalEdgeStyle;rounded=0;orthogonalLoop=1;jettySize=auto;html=1;exitX=0;exitY=0.5;exitDx=0;exitDy=0;entryX=1;entryY=0.75;entryDx=0;entryDy=0;" edge="1" parent="1" source="DnioZaB3EtmS2G3EoPJK-4" target="DnioZaB3EtmS2G3EoPJK-1">
          <mxGeometry relative="1" as="geometry" />
        </mxCell>
        <mxCell id="DnioZaB3EtmS2G3EoPJK-4" value="Antecedentes Medicos" style="ellipse;whiteSpace=wrap;html=1;" vertex="1" parent="1">
          <mxGeometry x="520" y="130" width="100" height="60" as="geometry" />
        </mxCell>
        <mxCell id="DnioZaB3EtmS2G3EoPJK-35" style="edgeStyle=orthogonalEdgeStyle;rounded=0;orthogonalLoop=1;jettySize=auto;html=1;exitX=1;exitY=0.5;exitDx=0;exitDy=0;entryX=0;entryY=0.25;entryDx=0;entryDy=0;" edge="1" parent="1" source="DnioZaB3EtmS2G3EoPJK-5" target="DnioZaB3EtmS2G3EoPJK-1">
          <mxGeometry relative="1" as="geometry" />
        </mxCell>
        <mxCell id="DnioZaB3EtmS2G3EoPJK-5" value="Nombre" style="ellipse;whiteSpace=wrap;html=1;" vertex="1" parent="1">
          <mxGeometry x="150" y="50" width="100" height="60" as="geometry" />
        </mxCell>
        <mxCell id="DnioZaB3EtmS2G3EoPJK-36" style="edgeStyle=orthogonalEdgeStyle;rounded=0;orthogonalLoop=1;jettySize=auto;html=1;exitX=1;exitY=0.5;exitDx=0;exitDy=0;entryX=0;entryY=0.75;entryDx=0;entryDy=0;" edge="1" parent="1" source="DnioZaB3EtmS2G3EoPJK-6" target="DnioZaB3EtmS2G3EoPJK-1">
          <mxGeometry relative="1" as="geometry" />
        </mxCell>
        <mxCell id="DnioZaB3EtmS2G3EoPJK-6" value="Edad" style="ellipse;whiteSpace=wrap;html=1;" vertex="1" parent="1">
          <mxGeometry x="150" y="120" width="100" height="60" as="geometry" />
        </mxCell>
        <mxCell id="DnioZaB3EtmS2G3EoPJK-7" value="Apellido" style="ellipse;whiteSpace=wrap;html=1;" vertex="1" parent="1">
          <mxGeometry x="160" y="190" width="100" height="60" as="geometry" />
        </mxCell>
        <mxCell id="DnioZaB3EtmS2G3EoPJK-39" style="edgeStyle=orthogonalEdgeStyle;rounded=0;orthogonalLoop=1;jettySize=auto;html=1;exitX=1;exitY=0;exitDx=0;exitDy=0;entryX=0;entryY=0.5;entryDx=0;entryDy=0;" edge="1" parent="1" source="DnioZaB3EtmS2G3EoPJK-8" target="DnioZaB3EtmS2G3EoPJK-9">
          <mxGeometry relative="1" as="geometry" />
        </mxCell>
        <mxCell id="DnioZaB3EtmS2G3EoPJK-40" style="edgeStyle=orthogonalEdgeStyle;rounded=0;orthogonalLoop=1;jettySize=auto;html=1;exitX=1;exitY=0.5;exitDx=0;exitDy=0;entryX=0;entryY=0.5;entryDx=0;entryDy=0;" edge="1" parent="1" source="DnioZaB3EtmS2G3EoPJK-8" target="DnioZaB3EtmS2G3EoPJK-10">
          <mxGeometry relative="1" as="geometry" />
        </mxCell>
        <mxCell id="DnioZaB3EtmS2G3EoPJK-42" style="edgeStyle=orthogonalEdgeStyle;rounded=0;orthogonalLoop=1;jettySize=auto;html=1;exitX=0.25;exitY=1;exitDx=0;exitDy=0;entryX=1;entryY=0;entryDx=0;entryDy=0;" edge="1" parent="1" source="DnioZaB3EtmS2G3EoPJK-8" target="DnioZaB3EtmS2G3EoPJK-14">
          <mxGeometry relative="1" as="geometry" />
        </mxCell>
        <mxCell id="DnioZaB3EtmS2G3EoPJK-44" style="edgeStyle=orthogonalEdgeStyle;rounded=0;orthogonalLoop=1;jettySize=auto;html=1;exitX=0;exitY=0;exitDx=0;exitDy=0;entryX=1;entryY=1;entryDx=0;entryDy=0;" edge="1" parent="1" source="DnioZaB3EtmS2G3EoPJK-8" target="DnioZaB3EtmS2G3EoPJK-12">
          <mxGeometry relative="1" as="geometry" />
        </mxCell>
        <mxCell id="DnioZaB3EtmS2G3EoPJK-45" style="edgeStyle=orthogonalEdgeStyle;rounded=0;orthogonalLoop=1;jettySize=auto;html=1;exitX=0.5;exitY=1;exitDx=0;exitDy=0;entryX=0.5;entryY=0;entryDx=0;entryDy=0;" edge="1" parent="1" source="DnioZaB3EtmS2G3EoPJK-8" target="DnioZaB3EtmS2G3EoPJK-15">
          <mxGeometry relative="1" as="geometry" />
        </mxCell>
        <mxCell id="DnioZaB3EtmS2G3EoPJK-8" value="Expedientes" style="rounded=0;whiteSpace=wrap;html=1;" vertex="1" parent="1">
          <mxGeometry x="340" y="360" width="130" height="50" as="geometry" />
        </mxCell>
        <mxCell id="DnioZaB3EtmS2G3EoPJK-9" value="Consultorio" style="ellipse;whiteSpace=wrap;html=1;" vertex="1" parent="1">
          <mxGeometry x="550" y="300" width="90" height="50" as="geometry" />
        </mxCell>
        <mxCell id="DnioZaB3EtmS2G3EoPJK-10" value="Enfermedades" style="ellipse;whiteSpace=wrap;html=1;" vertex="1" parent="1">
          <mxGeometry x="590" y="370" width="90" height="50" as="geometry" />
        </mxCell>
        <mxCell id="DnioZaB3EtmS2G3EoPJK-11" value="Clinica" style="ellipse;whiteSpace=wrap;html=1;" vertex="1" parent="1">
          <mxGeometry x="550" y="440" width="90" height="50" as="geometry" />
        </mxCell>
        <mxCell id="DnioZaB3EtmS2G3EoPJK-12" value="No. Paciente" style="ellipse;whiteSpace=wrap;html=1;" vertex="1" parent="1">
          <mxGeometry x="220" y="300" width="90" height="50" as="geometry" />
        </mxCell>
        <mxCell id="DnioZaB3EtmS2G3EoPJK-13" value="Nombre del medico" style="ellipse;whiteSpace=wrap;html=1;" vertex="1" parent="1">
          <mxGeometry x="165" y="370" width="90" height="50" as="geometry" />
        </mxCell>
        <mxCell id="DnioZaB3EtmS2G3EoPJK-14" value="Analisis" style="ellipse;whiteSpace=wrap;html=1;" vertex="1" parent="1">
          <mxGeometry x="220" y="440" width="90" height="50" as="geometry" />
        </mxCell>
        <mxCell id="DnioZaB3EtmS2G3EoPJK-46" style="edgeStyle=orthogonalEdgeStyle;rounded=0;orthogonalLoop=1;jettySize=auto;html=1;exitX=0.5;exitY=1;exitDx=0;exitDy=0;entryX=0.5;entryY=0;entryDx=0;entryDy=0;" edge="1" parent="1" source="DnioZaB3EtmS2G3EoPJK-15" target="DnioZaB3EtmS2G3EoPJK-16">
          <mxGeometry relative="1" as="geometry" />
        </mxCell>
        <mxCell id="DnioZaB3EtmS2G3EoPJK-15" value="contiene_analisis" style="rhombus;whiteSpace=wrap;html=1;" vertex="1" parent="1">
          <mxGeometry x="340" y="545" width="130" height="80" as="geometry" />
        </mxCell>
        <mxCell id="DnioZaB3EtmS2G3EoPJK-47" style="edgeStyle=orthogonalEdgeStyle;rounded=0;orthogonalLoop=1;jettySize=auto;html=1;exitX=1;exitY=0;exitDx=0;exitDy=0;entryX=0;entryY=0.5;entryDx=0;entryDy=0;" edge="1" parent="1" source="DnioZaB3EtmS2G3EoPJK-16" target="DnioZaB3EtmS2G3EoPJK-17">
          <mxGeometry relative="1" as="geometry" />
        </mxCell>
        <mxCell id="DnioZaB3EtmS2G3EoPJK-50" style="edgeStyle=orthogonalEdgeStyle;rounded=0;orthogonalLoop=1;jettySize=auto;html=1;exitX=0;exitY=0.5;exitDx=0;exitDy=0;" edge="1" parent="1" source="DnioZaB3EtmS2G3EoPJK-16" target="DnioZaB3EtmS2G3EoPJK-19">
          <mxGeometry relative="1" as="geometry" />
        </mxCell>
        <mxCell id="DnioZaB3EtmS2G3EoPJK-51" style="edgeStyle=orthogonalEdgeStyle;rounded=0;orthogonalLoop=1;jettySize=auto;html=1;exitX=0.5;exitY=1;exitDx=0;exitDy=0;entryX=0.5;entryY=0;entryDx=0;entryDy=0;" edge="1" parent="1" source="DnioZaB3EtmS2G3EoPJK-16" target="DnioZaB3EtmS2G3EoPJK-20">
          <mxGeometry relative="1" as="geometry" />
        </mxCell>
        <mxCell id="DnioZaB3EtmS2G3EoPJK-16" value="Analisis" style="rounded=0;whiteSpace=wrap;html=1;" vertex="1" parent="1">
          <mxGeometry x="345" y="660" width="120" height="60" as="geometry" />
        </mxCell>
        <mxCell id="DnioZaB3EtmS2G3EoPJK-17" value="No. Paciente" style="ellipse;whiteSpace=wrap;html=1;" vertex="1" parent="1">
          <mxGeometry x="520" y="600" width="90" height="60" as="geometry" />
        </mxCell>
        <mxCell id="DnioZaB3EtmS2G3EoPJK-18" value="Resultado" style="ellipse;whiteSpace=wrap;html=1;" vertex="1" parent="1">
          <mxGeometry x="520" y="680" width="90" height="60" as="geometry" />
        </mxCell>
        <mxCell id="DnioZaB3EtmS2G3EoPJK-19" value="Tipo de analisis" style="ellipse;whiteSpace=wrap;html=1;" vertex="1" parent="1">
          <mxGeometry x="210" y="660" width="90" height="60" as="geometry" />
        </mxCell>
        <mxCell id="DnioZaB3EtmS2G3EoPJK-52" style="edgeStyle=orthogonalEdgeStyle;rounded=0;orthogonalLoop=1;jettySize=auto;html=1;exitX=0.5;exitY=1;exitDx=0;exitDy=0;entryX=0.5;entryY=0;entryDx=0;entryDy=0;" edge="1" parent="1" source="DnioZaB3EtmS2G3EoPJK-20" target="DnioZaB3EtmS2G3EoPJK-21">
          <mxGeometry relative="1" as="geometry" />
        </mxCell>
        <mxCell id="DnioZaB3EtmS2G3EoPJK-20" value="atendido_por_medico" style="rhombus;whiteSpace=wrap;html=1;" vertex="1" parent="1">
          <mxGeometry x="330" y="790" width="150" height="80" as="geometry" />
        </mxCell>
        <mxCell id="DnioZaB3EtmS2G3EoPJK-53" style="edgeStyle=orthogonalEdgeStyle;rounded=0;orthogonalLoop=1;jettySize=auto;html=1;exitX=1;exitY=0;exitDx=0;exitDy=0;entryX=0;entryY=0.5;entryDx=0;entryDy=0;" edge="1" parent="1" source="DnioZaB3EtmS2G3EoPJK-21" target="DnioZaB3EtmS2G3EoPJK-22">
          <mxGeometry relative="1" as="geometry" />
        </mxCell>
        <mxCell id="DnioZaB3EtmS2G3EoPJK-55" style="edgeStyle=orthogonalEdgeStyle;rounded=0;orthogonalLoop=1;jettySize=auto;html=1;exitX=0;exitY=0.5;exitDx=0;exitDy=0;entryX=1;entryY=0.5;entryDx=0;entryDy=0;" edge="1" parent="1" source="DnioZaB3EtmS2G3EoPJK-21" target="DnioZaB3EtmS2G3EoPJK-24">
          <mxGeometry relative="1" as="geometry" />
        </mxCell>
        <mxCell id="DnioZaB3EtmS2G3EoPJK-56" style="edgeStyle=orthogonalEdgeStyle;rounded=0;orthogonalLoop=1;jettySize=auto;html=1;exitX=0.5;exitY=1;exitDx=0;exitDy=0;" edge="1" parent="1" source="DnioZaB3EtmS2G3EoPJK-21" target="DnioZaB3EtmS2G3EoPJK-25">
          <mxGeometry relative="1" as="geometry" />
        </mxCell>
        <mxCell id="DnioZaB3EtmS2G3EoPJK-21" value="Medico" style="rounded=0;whiteSpace=wrap;html=1;" vertex="1" parent="1">
          <mxGeometry x="345" y="920" width="120" height="60" as="geometry" />
        </mxCell>
        <mxCell id="DnioZaB3EtmS2G3EoPJK-22" value="Consuta" style="ellipse;whiteSpace=wrap;html=1;" vertex="1" parent="1">
          <mxGeometry x="530" y="850" width="100" height="60" as="geometry" />
        </mxCell>
        <mxCell id="DnioZaB3EtmS2G3EoPJK-23" value="Nombre" style="ellipse;whiteSpace=wrap;html=1;" vertex="1" parent="1">
          <mxGeometry x="530" y="940" width="100" height="60" as="geometry" />
        </mxCell>
        <mxCell id="DnioZaB3EtmS2G3EoPJK-24" value="Especialidad" style="ellipse;whiteSpace=wrap;html=1;" vertex="1" parent="1">
          <mxGeometry x="205" y="920" width="100" height="60" as="geometry" />
        </mxCell>
        <mxCell id="DnioZaB3EtmS2G3EoPJK-25" value="realiza_consulta_medica" style="rhombus;whiteSpace=wrap;html=1;" vertex="1" parent="1">
          <mxGeometry x="320" y="1060" width="170" height="80" as="geometry" />
        </mxCell>
        <mxCell id="DnioZaB3EtmS2G3EoPJK-58" style="edgeStyle=orthogonalEdgeStyle;rounded=0;orthogonalLoop=1;jettySize=auto;html=1;exitX=1;exitY=0;exitDx=0;exitDy=0;" edge="1" parent="1" source="DnioZaB3EtmS2G3EoPJK-26" target="DnioZaB3EtmS2G3EoPJK-27">
          <mxGeometry relative="1" as="geometry" />
        </mxCell>
        <mxCell id="DnioZaB3EtmS2G3EoPJK-59" style="edgeStyle=orthogonalEdgeStyle;rounded=0;orthogonalLoop=1;jettySize=auto;html=1;exitX=1;exitY=0.5;exitDx=0;exitDy=0;" edge="1" parent="1" source="DnioZaB3EtmS2G3EoPJK-26" target="DnioZaB3EtmS2G3EoPJK-28">
          <mxGeometry relative="1" as="geometry" />
        </mxCell>
        <mxCell id="DnioZaB3EtmS2G3EoPJK-60" style="edgeStyle=orthogonalEdgeStyle;rounded=0;orthogonalLoop=1;jettySize=auto;html=1;exitX=1;exitY=1;exitDx=0;exitDy=0;entryX=0;entryY=0.5;entryDx=0;entryDy=0;" edge="1" parent="1" source="DnioZaB3EtmS2G3EoPJK-26" target="DnioZaB3EtmS2G3EoPJK-29">
          <mxGeometry relative="1" as="geometry" />
        </mxCell>
        <mxCell id="DnioZaB3EtmS2G3EoPJK-61" style="edgeStyle=orthogonalEdgeStyle;rounded=0;orthogonalLoop=1;jettySize=auto;html=1;exitX=0;exitY=1;exitDx=0;exitDy=0;" edge="1" parent="1" source="DnioZaB3EtmS2G3EoPJK-26" target="DnioZaB3EtmS2G3EoPJK-31">
          <mxGeometry relative="1" as="geometry" />
        </mxCell>
        <mxCell id="DnioZaB3EtmS2G3EoPJK-26" value="Consulta" style="rounded=0;whiteSpace=wrap;html=1;" vertex="1" parent="1">
          <mxGeometry x="354" y="1200" width="120" height="60" as="geometry" />
        </mxCell>
        <mxCell id="DnioZaB3EtmS2G3EoPJK-27" value="Fecha y hora de la consuta" style="ellipse;whiteSpace=wrap;html=1;" vertex="1" parent="1">
          <mxGeometry x="560" y="1170" width="100" height="50" as="geometry" />
        </mxCell>
        <mxCell id="DnioZaB3EtmS2G3EoPJK-28" value="Nombre del paciente" style="ellipse;whiteSpace=wrap;html=1;" vertex="1" parent="1">
          <mxGeometry x="570" y="1240" width="100" height="50" as="geometry" />
        </mxCell>
        <mxCell id="DnioZaB3EtmS2G3EoPJK-29" value="Nombre del medico" style="ellipse;whiteSpace=wrap;html=1;" vertex="1" parent="1">
          <mxGeometry x="530" y="1310" width="100" height="50" as="geometry" />
        </mxCell>
        <mxCell id="DnioZaB3EtmS2G3EoPJK-30" value="Diagnostico" style="ellipse;whiteSpace=wrap;html=1;" vertex="1" parent="1">
          <mxGeometry x="140" y="1170" width="100" height="50" as="geometry" />
        </mxCell>
        <mxCell id="DnioZaB3EtmS2G3EoPJK-31" value="Tratamiento" style="ellipse;whiteSpace=wrap;html=1;" vertex="1" parent="1">
          <mxGeometry x="160" y="1230" width="100" height="50" as="geometry" />
        </mxCell>
        <mxCell id="DnioZaB3EtmS2G3EoPJK-37" style="edgeStyle=orthogonalEdgeStyle;rounded=0;orthogonalLoop=1;jettySize=auto;html=1;exitX=1;exitY=0.5;exitDx=0;exitDy=0;entryX=0.075;entryY=1.075;entryDx=0;entryDy=0;entryPerimeter=0;" edge="1" parent="1" source="DnioZaB3EtmS2G3EoPJK-7" target="DnioZaB3EtmS2G3EoPJK-1">
          <mxGeometry relative="1" as="geometry" />
        </mxCell>
        <mxCell id="DnioZaB3EtmS2G3EoPJK-41" style="edgeStyle=orthogonalEdgeStyle;rounded=0;orthogonalLoop=1;jettySize=auto;html=1;exitX=1;exitY=1;exitDx=0;exitDy=0;entryX=0.067;entryY=0.32;entryDx=0;entryDy=0;entryPerimeter=0;" edge="1" parent="1" source="DnioZaB3EtmS2G3EoPJK-8" target="DnioZaB3EtmS2G3EoPJK-11">
          <mxGeometry relative="1" as="geometry" />
        </mxCell>
        <mxCell id="DnioZaB3EtmS2G3EoPJK-43" style="edgeStyle=orthogonalEdgeStyle;rounded=0;orthogonalLoop=1;jettySize=auto;html=1;exitX=0;exitY=0.5;exitDx=0;exitDy=0;entryX=0.967;entryY=0.32;entryDx=0;entryDy=0;entryPerimeter=0;" edge="1" parent="1" source="DnioZaB3EtmS2G3EoPJK-8" target="DnioZaB3EtmS2G3EoPJK-13">
          <mxGeometry relative="1" as="geometry" />
        </mxCell>
        <mxCell id="DnioZaB3EtmS2G3EoPJK-48" style="edgeStyle=orthogonalEdgeStyle;rounded=0;orthogonalLoop=1;jettySize=auto;html=1;exitX=1;exitY=0.5;exitDx=0;exitDy=0;entryX=0.033;entryY=0.4;entryDx=0;entryDy=0;entryPerimeter=0;" edge="1" parent="1" source="DnioZaB3EtmS2G3EoPJK-16" target="DnioZaB3EtmS2G3EoPJK-18">
          <mxGeometry relative="1" as="geometry" />
        </mxCell>
        <mxCell id="DnioZaB3EtmS2G3EoPJK-49" style="edgeStyle=orthogonalEdgeStyle;rounded=0;orthogonalLoop=1;jettySize=auto;html=1;exitX=1;exitY=1;exitDx=0;exitDy=0;entryX=0.033;entryY=0.8;entryDx=0;entryDy=0;entryPerimeter=0;" edge="1" parent="1" source="DnioZaB3EtmS2G3EoPJK-16" target="DnioZaB3EtmS2G3EoPJK-18">
          <mxGeometry relative="1" as="geometry" />
        </mxCell>
        <mxCell id="DnioZaB3EtmS2G3EoPJK-54" style="edgeStyle=orthogonalEdgeStyle;rounded=0;orthogonalLoop=1;jettySize=auto;html=1;exitX=1;exitY=0.5;exitDx=0;exitDy=0;entryX=0.01;entryY=0.383;entryDx=0;entryDy=0;entryPerimeter=0;" edge="1" parent="1" source="DnioZaB3EtmS2G3EoPJK-21" target="DnioZaB3EtmS2G3EoPJK-23">
          <mxGeometry relative="1" as="geometry" />
        </mxCell>
        <mxCell id="DnioZaB3EtmS2G3EoPJK-57" style="edgeStyle=orthogonalEdgeStyle;rounded=0;orthogonalLoop=1;jettySize=auto;html=1;exitX=0.5;exitY=1;exitDx=0;exitDy=0;" edge="1" parent="1" source="DnioZaB3EtmS2G3EoPJK-25">
          <mxGeometry relative="1" as="geometry">
            <mxPoint x="405" y="1200" as="targetPoint" />
          </mxGeometry>
        </mxCell>
        <mxCell id="DnioZaB3EtmS2G3EoPJK-62" style="edgeStyle=orthogonalEdgeStyle;rounded=0;orthogonalLoop=1;jettySize=auto;html=1;exitX=0;exitY=0;exitDx=0;exitDy=0;" edge="1" parent="1" source="DnioZaB3EtmS2G3EoPJK-26" target="DnioZaB3EtmS2G3EoPJK-30">
          <mxGeometry relative="1" as="geometry">
            <mxPoint x="241" y="1183" as="targetPoint" />
          </mxGeometry>
        </mxCell>
      </root>
    </mxGraphModel>
  </diagram>
</mxfile>
